inDegrees=no
num_controls=7
num_derivatives=13
num_iterations=74
num_multipliers=7
num_parameters=0
num_slacks=7
num_states=26
objective=0.334359
objective_accelerations=0.036344
objective_balance=0.001163
objective_effort=0.027726
objective_height=0.267655
objective_ligament=0.001471
solver_duration=781.458576
status=Solve_Succeeded
success=true
DataType=double
version=3
OpenSimVersion=4.5
endheader
time	/jointset/ground_pelvis/pelvis_tilt/value	/jointset/ground_pelvis/pelvis_tx/value	/jointset/ground_pelvis/pelvis_ty/value	/jointset/hip_r/hip_flexion_r/value	/jointset/hip_r/hip_adduction_r/value	/jointset/hip_r/hip_rotation_r/value	/jointset/back/lumbar_extension/value	/jointset/patellofemoral_r/patellar_flexion_r/value	/jointset/knee_r/knee_flexion_r/value	/jointset/knee_r/knee_adduction_r/value	/jointset/knee_r/knee_rotation_r/value	/jointset/ankle_r/ankle_angle_r/value	/jointset/subtalar_r/subtalar_angle_r/value	/jointset/ground_pelvis/pelvis_tilt/speed	/jointset/ground_pelvis/pelvis_tx/speed	/jointset/ground_pelvis/pelvis_ty/speed	/jointset/hip_r/hip_flexion_r/speed	/jointset/hip_r/hip_adduction_r/speed	/jointset/hip_r/hip_rotation_r/speed	/jointset/back/lumbar_extension/speed	/jointset/patellofemoral_r/patellar_flexion_r/speed	/jointset/knee_r/knee_flexion_r/speed	/jointset/knee_r/knee_adduction_r/speed	/jointset/knee_r/knee_rotation_r/speed	/jointset/ankle_r/ankle_angle_r/speed	/jointset/subtalar_r/subtalar_angle_r/speed	/forceset/tau_hip_flexion_r	/forceset/tau_hip_adduction_r	/forceset/tau_hip_rotation_r	/forceset/tau_knee_flexion_r	/forceset/tau_ankle_angle_r	/forceset/tau_subtalar_angle_r	/forceset/tau_lumbar_extension	lambda_cid13_p0	lambda_cid14_p0	lambda_cid14_p1	lambda_cid14_p2	lambda_cid14_p3	lambda_cid14_p4	lambda_cid14_p5	/jointset/ground_pelvis/pelvis_tilt/accel	/jointset/ground_pelvis/pelvis_tx/accel	/jointset/ground_pelvis/pelvis_ty/accel	/jointset/hip_r/hip_flexion_r/accel	/jointset/hip_r/hip_adduction_r/accel	/jointset/hip_r/hip_rotation_r/accel	/jointset/back/lumbar_extension/accel	/jointset/patellofemoral_r/patellar_flexion_r/accel	/jointset/knee_r/knee_flexion_r/accel	/jointset/knee_r/knee_adduction_r/accel	/jointset/knee_r/knee_rotation_r/accel	/jointset/ankle_r/ankle_angle_r/accel	/jointset/subtalar_r/subtalar_angle_r/accel	gamma_cid13_p0	gamma_cid14_p0	gamma_cid14_p1	gamma_cid14_p2	gamma_cid14_p3	gamma_cid14_p4	gamma_cid14_p5
0	-0.01125556784751846	0.1339387964386833	0.9325412306460904	0.1934211968871041	-0.237457859661296	-0.2328997603153046	-0.2903787966825928	0.2311786273363407	0.2311786273363406	0.1533577987322332	0.170413004206577	0.089344008118978	0.05225430406953608	0	0	0	0	0	0	0	0	0	0	0	0	0	0.1106382086285617	-0.04267613370287897	0.006065382330545101	-0.2516840089945787	0.1314012544336108	-0.1292725992479027	-0.03091593718812058	-29.91063210360813	-6.145885404102762	-52.29672466747403	3.136822662390423	1.714503420934163	-612.2150225798034	18.57660110154276	-2.285934710804493	-1.930665426223211	-0.8316679300172096	10.61167391487088	0.5550413625120295	2.417484273147147	-6.264612352096332	10.089906161225	10.08990616122485	-3.725884280533482	0.02282753470776524	2.750422331029638	1.424124171097735	2.107909360914027e-07	1.374416840878273e-07	-1.342845861006865e-06	1.046934628964509e-06	5.652854091115089e-08	5.071989367606558e-07	-1.274102434085401e-06
0.01	-0.01136292950613156	0.1338455241238877	0.9325008521018913	0.1939332194577125	-0.2374324341468259	-0.2327802358436305	-0.2906923222012697	0.2316715191004594	0.2316715191004594	0.153179564794049	0.1704136911478902	0.08947967320408663	0.05232213424252347	-0.0212990600006026	-0.01834953284273763	-0.008052281451945888	0.1013190401563375	0.004584036118930655	0.02354158121853537	-0.06218236392569861	0.09787744895708902	0.09787744895708737	-0.03439916746420411	0.0005849857052352782	0.02700287050239926	0.01291751721305092	0.1104039227720339	-0.06355613921202265	0.005692755706859319	-0.258758645429762	0.1409742367696418	-0.1157714158999144	-0.02911495866720754	-29.91486149997943	-2.368634784523238	-45.68083592132388	1.978175038806317	-3.563210297209554	-613.6828881378775	32.97762536375257	-2.025898957515868	-1.741346390135147	-0.7883927048164502	9.729207001185298	0.334911721433674	2.268206185450394	-6.116637441354398	9.531486524770781	9.531486524770687	-3.10990031042077	0.1436782545030319	2.655726507641138	1.128199777954294	1.20742967800308e-07	6.669101905549082e-08	-7.633553931291232e-07	5.460825452073476e-07	4.194072716867373e-08	1.704951090280039e-07	-6.832033112304776e-07
0.02	-0.01167808322731626	0.1335779066452975	0.9323806738527661	0.1954258700169184	-0.2373762028741964	-0.2324361533319224	-0.2916119891649131	0.233122149806513	0.233122149806513	0.1526947457150119	0.1704336967794703	0.08988146841378369	0.05249966644395043	-0.04155841251431418	-0.03486903275892187	-0.01595994098522194	0.1961255977194796	0.00616115163186487	0.04491160800681473	-0.1212282889933081	0.1915477883869752	0.1915477883869752	-0.06131702817068406	0.003863738053335519	0.0532260249176925	0.02194040568791538	0.1101696369155066	-0.08443614472116426	0.005320129083173919	-0.2658332818649451	0.150547219105673	-0.1022702325519258	-0.02731398014629438	-29.92790293207775	1.486578429659057	-39.07539513969285	0.8487211952279303	-8.761830398423601	-613.8580120587703	47.0422369353546	-2.07799321342629	-1.564658840912532	-0.8027435462832425	9.309177396231812	-0.04634275868725718	1.983173387095944	-5.637324580478519	9.248484255784438	9.248484255784948	-2.229622928988658	0.5615808632807611	2.594479113608436	0.6451984234604411	3.069499950921333e-08	-4.059645976845624e-09	-1.838649252513814e-07	4.52304614501858e-08	2.735291342619656e-08	-1.662087187046479e-07	-9.230418837555397e-08
0.03	-0.01219209086668	0.13315131631393	0.9321818802285388	0.1978433383246386	-0.2373119859551108	-0.2318877380444371	-0.2931088046073499	0.2354925606845513	0.2354925606845514	0.1519616608111061	0.1704949978906902	0.09054216578465879	0.0527570804362937	-0.06117708517963498	-0.05043590110300759	-0.02379288561688473	0.2871726395215068	0.006950527344679659	0.06472109824467005	-0.177891152652031	0.282213537110807	0.282213537110809	-0.08577642359033119	0.008154354330928469	0.07885155427983351	0.02986219148202937	0.1048662658195396	-0.08544930891582393	0.006099790063093076	-0.2591592981714429	0.1398888217239242	-0.09635963485966637	-0.023255191763988	-29.95006286248248	-1.647815916346432	-36.90522910547352	0.3291128513466529	-6.892995731827028	-614.1784994263445	50.49784154720405	-1.893894172680643	-1.55072555778263	-0.7727197872647461	8.973156348709528	0.1818073303745205	1.972294675739735	-5.644220232263886	8.927486889030506	8.927486889030495	-2.625591715260198	0.3264916408531869	2.537310544452941	0.9136157382867734	8.77551849712708e-08	1.836715325936232e-08	-5.023242445832795e-07	4.454697655649524e-07	5.027215942218603e-08	-1.153949303304317e-07	-5.260536805128763e-07
0.04	-0.01290030320861611	0.1325694523537966	0.9319049271848633	0.2011654148056833	-0.2372318293600752	-0.2311427362878512	-0.2951649392811129	0.2387600023914976	0.2387600023914976	0.1509696831796422	0.1705919430908569	0.09145726258854252	0.05310330170275811	-0.08039935302878241	-0.06592375851213507	-0.03159182487482486	0.3770472323843877	0.009349086821842607	0.08422890182689585	-0.2330921352585425	0.3709539541685574	0.3709539541685589	-0.1130955736822764	0.01099255584270674	0.104105911519414	0.03970186051214522	0.09956289472357248	-0.08646247311048368	0.006879451043012234	-0.2524853144779406	0.1292304243421754	-0.09044903716740703	-0.01919640338168152	-29.97991988320379	-4.710069758240257	-34.74014977230812	-0.1694457183427912	-4.964626129486621	-613.3224086422905	53.66456682031674	-1.998712250191618	-1.548856653920876	-0.795942471538675	9.07468760840251	0.2754939941824915	1.922836055969454	-5.344948370036244	8.863417922568194	8.863417922568189	-2.801573863448259	0.2710979101178537	2.520244689096238	1.028775070661417	1.478485282426716e-07	4.271513732584955e-08	-8.392979925174384e-07	8.642882735533673e-07	7.396474685608204e-08	-5.659108801586761e-08	-9.809299482170492e-07
0.05	-0.01379933376311551	0.1318339164096779	0.9315497982909015	0.2053781489469236	-0.2371237298015794	-0.2302049460912595	-0.2977634315616687	0.2429036589063747	0.2429036589063747	0.1496995152668467	0.1707125527607597	0.09262182932665802	0.05355216103080211	-0.09934607601773054	-0.08108737290868703	-0.03945533653429464	0.4650031400626317	0.01212001745097359	0.1032928120054022	-0.2861844611044536	0.4572613981782221	0.4572613981782199	-0.1404424447871644	0.0130577565589349	0.1286118108376107	0.04983584246994871	0.09406839004272516	-0.07955713923634705	0.007388388583955555	-0.2481349087031549	0.1246474719443691	-0.09174769482177896	-0.01465798429940835	-30.01588143361974	-6.18775447801704	-35.62099287119391	0.03735375297273327	-4.507099677145591	-612.6713987797666	50.28733587974211	-1.833539993590096	-1.485690237682795	-0.7847737487003454	8.581581964950745	0.2553147517303297	1.892883858022751	-5.228095729642838	8.436984990559427	8.436984990558878	-2.626953032183442	0.1636529375078765	2.386427978488599	0.9705566099306926	1.185210803104827e-07	2.190725128807531e-08	-6.547210877583029e-07	6.41589070039767e-07	6.849886537098774e-08	-1.792279041907365e-07	-7.332951721703433e-07
